<mxfile host="app.diagrams.net" agent="Mozilla/5.0 (Windows NT 10.0; Win64; x64) AppleWebKit/537.36 (KHTML, like Gecko) Chrome/130.0.0.0 Safari/537.36" version="24.8.3">
  <diagram id="C5RBs43oDa-KdzZeNtuy" name="Page-1">
    <mxGraphModel dx="2699" dy="977" grid="1" gridSize="10" guides="1" tooltips="1" connect="1" arrows="1" fold="1" page="1" pageScale="1" pageWidth="827" pageHeight="1169" math="0" shadow="0">
      <root>
        <mxCell id="WIyWlLk6GJQsqaUBKTNV-0" />
        <mxCell id="WIyWlLk6GJQsqaUBKTNV-1" parent="WIyWlLk6GJQsqaUBKTNV-0" />
        <mxCell id="zS47Xuw-DA11DCwyIxi2-4" value="&lt;u&gt;student1:Student&lt;/u&gt;" style="swimlane;fontStyle=1;align=center;verticalAlign=top;childLayout=stackLayout;horizontal=1;startSize=26;horizontalStack=0;resizeParent=1;resizeParentMax=0;resizeLast=0;collapsible=1;marginBottom=0;whiteSpace=wrap;html=1;" parent="WIyWlLk6GJQsqaUBKTNV-1" vertex="1">
          <mxGeometry x="300" y="380" width="180" height="300" as="geometry" />
        </mxCell>
        <mxCell id="zS47Xuw-DA11DCwyIxi2-5" value="studentID = 50001&lt;div&gt;&lt;br&gt;&lt;div&gt;name = &quot;Jack Miller&quot;&lt;/div&gt;&lt;div&gt;&lt;br&gt;&lt;/div&gt;&lt;div&gt;dateOfBirth = 08051995&lt;/div&gt;&lt;div&gt;&lt;br&gt;&lt;/div&gt;&lt;div&gt;major = &quot;Computer Science&lt;/div&gt;&lt;div&gt;&lt;br&gt;&lt;/div&gt;&lt;div&gt;year = &quot;Junior&quot;&amp;nbsp;&lt;/div&gt;&lt;div&gt;&lt;br&gt;&lt;/div&gt;&lt;div&gt;email = &quot;Jack001@gmail.com&quot;&lt;/div&gt;&lt;div&gt;&lt;br&gt;&lt;/div&gt;&lt;div&gt;phone = 2035761460&lt;/div&gt;&lt;div&gt;&lt;br&gt;&lt;/div&gt;&lt;div&gt;gpa = 3.1&lt;/div&gt;&lt;div&gt;&lt;br&gt;&lt;/div&gt;&lt;div&gt;creditsEarned = 71&lt;/div&gt;&lt;/div&gt;" style="text;strokeColor=none;fillColor=none;align=left;verticalAlign=top;spacingLeft=4;spacingRight=4;overflow=hidden;rotatable=0;points=[[0,0.5],[1,0.5]];portConstraint=eastwest;whiteSpace=wrap;html=1;" parent="zS47Xuw-DA11DCwyIxi2-4" vertex="1">
          <mxGeometry y="26" width="180" height="264" as="geometry" />
        </mxCell>
        <mxCell id="zS47Xuw-DA11DCwyIxi2-6" value="" style="line;strokeWidth=1;fillColor=none;align=left;verticalAlign=middle;spacingTop=-1;spacingLeft=3;spacingRight=3;rotatable=0;labelPosition=right;points=[];portConstraint=eastwest;strokeColor=inherit;" parent="zS47Xuw-DA11DCwyIxi2-4" vertex="1">
          <mxGeometry y="290" width="180" height="8" as="geometry" />
        </mxCell>
        <mxCell id="zS47Xuw-DA11DCwyIxi2-7" value="- getName(): String&lt;div&gt;&lt;br&gt;&lt;/div&gt;&lt;div&gt;- getDateOfBirth(): Int&lt;/div&gt;&lt;div&gt;&lt;br&gt;&lt;/div&gt;&lt;div&gt;- getMajor(): String&lt;/div&gt;&lt;div&gt;&lt;br&gt;&lt;/div&gt;&lt;div&gt;- getYear(): String&lt;/div&gt;&lt;div&gt;&lt;br&gt;&lt;/div&gt;&lt;div&gt;- getEmail(): String&lt;/div&gt;&lt;div&gt;&lt;br&gt;&lt;/div&gt;&lt;div&gt;- getPhone(): String&lt;/div&gt;&lt;div&gt;&lt;br&gt;&lt;/div&gt;&lt;div&gt;- getGPA(): Double&lt;/div&gt;&lt;div&gt;&lt;br&gt;&lt;/div&gt;&lt;div&gt;- getCredits(): Int&lt;/div&gt;" style="text;strokeColor=none;fillColor=none;align=left;verticalAlign=top;spacingLeft=4;spacingRight=4;overflow=hidden;rotatable=0;points=[[0,0.5],[1,0.5]];portConstraint=eastwest;whiteSpace=wrap;html=1;" parent="zS47Xuw-DA11DCwyIxi2-4" vertex="1">
          <mxGeometry y="298" width="180" height="2" as="geometry" />
        </mxCell>
        <mxCell id="zS47Xuw-DA11DCwyIxi2-24" value="&lt;u&gt;professor1:Professor&lt;/u&gt;" style="swimlane;fontStyle=1;align=center;verticalAlign=top;childLayout=stackLayout;horizontal=1;startSize=26;horizontalStack=0;resizeParent=1;resizeParentMax=0;resizeLast=0;collapsible=1;marginBottom=0;whiteSpace=wrap;html=1;" parent="WIyWlLk6GJQsqaUBKTNV-1" vertex="1">
          <mxGeometry x="560" y="310" width="250" height="140" as="geometry" />
        </mxCell>
        <mxCell id="zS47Xuw-DA11DCwyIxi2-25" value="department = &quot;Computer Science&quot;&lt;div&gt;&lt;br&gt;&lt;/div&gt;&lt;div&gt;officeLocation = &quot;Higgins 029&quot;&lt;/div&gt;&lt;div&gt;&lt;br&gt;&lt;/div&gt;&lt;div&gt;coursesTeaching = 2&lt;br&gt;&lt;div&gt;&lt;br&gt;&lt;/div&gt;&lt;/div&gt;" style="text;strokeColor=none;fillColor=none;align=left;verticalAlign=top;spacingLeft=4;spacingRight=4;overflow=hidden;rotatable=0;points=[[0,0.5],[1,0.5]];portConstraint=eastwest;whiteSpace=wrap;html=1;" parent="zS47Xuw-DA11DCwyIxi2-24" vertex="1">
          <mxGeometry y="26" width="250" height="84" as="geometry" />
        </mxCell>
        <mxCell id="zS47Xuw-DA11DCwyIxi2-26" value="" style="line;strokeWidth=1;fillColor=none;align=left;verticalAlign=middle;spacingTop=-1;spacingLeft=3;spacingRight=3;rotatable=0;labelPosition=right;points=[];portConstraint=eastwest;strokeColor=inherit;" parent="zS47Xuw-DA11DCwyIxi2-24" vertex="1">
          <mxGeometry y="110" width="250" height="30" as="geometry" />
        </mxCell>
        <mxCell id="zS47Xuw-DA11DCwyIxi2-28" value="&lt;u&gt;course1:Course&lt;/u&gt;" style="swimlane;fontStyle=1;align=center;verticalAlign=top;childLayout=stackLayout;horizontal=1;startSize=26;horizontalStack=0;resizeParent=1;resizeParentMax=0;resizeLast=0;collapsible=1;marginBottom=0;whiteSpace=wrap;html=1;" parent="WIyWlLk6GJQsqaUBKTNV-1" vertex="1">
          <mxGeometry x="840" y="560" width="230" height="180" as="geometry" />
        </mxCell>
        <mxCell id="zS47Xuw-DA11DCwyIxi2-29" value="courseID = 503&lt;div&gt;&lt;br&gt;&lt;div&gt;courseName = &quot;Computer Architecture&quot;&lt;/div&gt;&lt;div&gt;&lt;br&gt;&lt;/div&gt;&lt;div&gt;creditHours = 4&lt;/div&gt;&lt;div&gt;&lt;br&gt;&lt;/div&gt;&lt;div&gt;professor = &quot;Peter&quot;&lt;/div&gt;&lt;/div&gt;" style="text;strokeColor=none;fillColor=none;align=left;verticalAlign=top;spacingLeft=4;spacingRight=4;overflow=hidden;rotatable=0;points=[[0,0.5],[1,0.5]];portConstraint=eastwest;whiteSpace=wrap;html=1;" parent="zS47Xuw-DA11DCwyIxi2-28" vertex="1">
          <mxGeometry y="26" width="230" height="134" as="geometry" />
        </mxCell>
        <mxCell id="zS47Xuw-DA11DCwyIxi2-30" value="" style="line;strokeWidth=1;fillColor=none;align=left;verticalAlign=middle;spacingTop=-1;spacingLeft=3;spacingRight=3;rotatable=0;labelPosition=right;points=[];portConstraint=eastwest;strokeColor=inherit;" parent="zS47Xuw-DA11DCwyIxi2-28" vertex="1">
          <mxGeometry y="160" width="230" height="8" as="geometry" />
        </mxCell>
        <mxCell id="zS47Xuw-DA11DCwyIxi2-31" value="&lt;div&gt;&lt;br&gt;&lt;div&gt;&lt;br&gt;&lt;/div&gt;&lt;div&gt;&lt;br&gt;&lt;/div&gt;&lt;/div&gt;&lt;div&gt;&lt;br&gt;&lt;/div&gt;" style="text;strokeColor=none;fillColor=none;align=left;verticalAlign=top;spacingLeft=4;spacingRight=4;overflow=hidden;rotatable=0;points=[[0,0.5],[1,0.5]];portConstraint=eastwest;whiteSpace=wrap;html=1;" parent="zS47Xuw-DA11DCwyIxi2-28" vertex="1">
          <mxGeometry y="168" width="230" height="12" as="geometry" />
        </mxCell>
        <mxCell id="zS47Xuw-DA11DCwyIxi2-32" value="&lt;u&gt;sms1:SMS&lt;/u&gt;" style="swimlane;fontStyle=1;align=center;verticalAlign=top;childLayout=stackLayout;horizontal=1;startSize=26;horizontalStack=0;resizeParent=1;resizeParentMax=0;resizeLast=0;collapsible=1;marginBottom=0;whiteSpace=wrap;html=1;" parent="WIyWlLk6GJQsqaUBKTNV-1" vertex="1">
          <mxGeometry x="-80" y="600" width="210" height="150" as="geometry" />
        </mxCell>
        <mxCell id="zS47Xuw-DA11DCwyIxi2-33" value="students = 4169&amp;nbsp;&lt;div&gt;&lt;br&gt;&lt;div&gt;courses = 600&lt;br&gt;&lt;/div&gt;&lt;div&gt;&lt;br&gt;&lt;/div&gt;&lt;div&gt;users = 120&lt;/div&gt;&lt;div&gt;&lt;br&gt;&lt;/div&gt;&lt;div&gt;&lt;br&gt;&lt;/div&gt;&lt;/div&gt;" style="text;strokeColor=none;fillColor=none;align=left;verticalAlign=top;spacingLeft=4;spacingRight=4;overflow=hidden;rotatable=0;points=[[0,0.5],[1,0.5]];portConstraint=eastwest;whiteSpace=wrap;html=1;" parent="zS47Xuw-DA11DCwyIxi2-32" vertex="1">
          <mxGeometry y="26" width="210" height="104" as="geometry" />
        </mxCell>
        <mxCell id="zS47Xuw-DA11DCwyIxi2-34" value="" style="line;strokeWidth=1;fillColor=none;align=left;verticalAlign=middle;spacingTop=-1;spacingLeft=3;spacingRight=3;rotatable=0;labelPosition=right;points=[];portConstraint=eastwest;strokeColor=inherit;" parent="zS47Xuw-DA11DCwyIxi2-32" vertex="1">
          <mxGeometry y="130" width="210" height="20" as="geometry" />
        </mxCell>
        <mxCell id="_Zu6XicUp9Q5LT68E479-3" value="" style="endArrow=none;startArrow=none;endFill=0;startFill=0;endSize=8;html=1;verticalAlign=bottom;labelBackgroundColor=none;strokeWidth=3;rounded=0;entryX=0.495;entryY=1.018;entryDx=0;entryDy=0;entryPerimeter=0;" parent="WIyWlLk6GJQsqaUBKTNV-1" target="_Zu6XicUp9Q5LT68E479-15" edge="1">
          <mxGeometry width="160" relative="1" as="geometry">
            <mxPoint x="29.789999999999996" y="600" as="sourcePoint" />
            <mxPoint x="28.559999999999945" y="277.0440000000003" as="targetPoint" />
          </mxGeometry>
        </mxCell>
        <mxCell id="_Zu6XicUp9Q5LT68E479-5" value="" style="endArrow=none;startArrow=none;endFill=0;startFill=0;endSize=8;html=1;verticalAlign=bottom;labelBackgroundColor=none;strokeWidth=3;rounded=0;exitX=1.008;exitY=0.979;exitDx=0;exitDy=0;exitPerimeter=0;entryX=0.474;entryY=-0.021;entryDx=0;entryDy=0;entryPerimeter=0;" parent="WIyWlLk6GJQsqaUBKTNV-1" target="zS47Xuw-DA11DCwyIxi2-24" edge="1">
          <mxGeometry width="160" relative="1" as="geometry">
            <mxPoint x="120.00000000000006" y="220.58599999999984" as="sourcePoint" />
            <mxPoint x="678.81" y="275.99999999999983" as="targetPoint" />
            <Array as="points">
              <mxPoint x="678.56" y="220.56" />
            </Array>
          </mxGeometry>
        </mxCell>
        <mxCell id="_Zu6XicUp9Q5LT68E479-6" value="" style="endArrow=none;startArrow=none;endFill=0;startFill=0;endSize=8;html=1;verticalAlign=bottom;labelBackgroundColor=none;strokeWidth=3;rounded=0;entryX=0.5;entryY=0;entryDx=0;entryDy=0;exitX=1.009;exitY=0.365;exitDx=0;exitDy=0;exitPerimeter=0;" parent="WIyWlLk6GJQsqaUBKTNV-1" target="zS47Xuw-DA11DCwyIxi2-28" edge="1">
          <mxGeometry width="160" relative="1" as="geometry">
            <mxPoint x="810.0000000000001" y="383.61" as="sourcePoint" />
            <mxPoint x="1238.38" y="380" as="targetPoint" />
            <Array as="points">
              <mxPoint x="955" y="384" />
            </Array>
          </mxGeometry>
        </mxCell>
        <mxCell id="_Zu6XicUp9Q5LT68E479-8" value="" style="endArrow=none;startArrow=none;endFill=0;startFill=0;endSize=8;html=1;verticalAlign=bottom;labelBackgroundColor=none;strokeWidth=3;rounded=0;exitX=1.015;exitY=0.883;exitDx=0;exitDy=0;exitPerimeter=0;" parent="WIyWlLk6GJQsqaUBKTNV-1" source="zS47Xuw-DA11DCwyIxi2-5" edge="1">
          <mxGeometry width="160" relative="1" as="geometry">
            <mxPoint x="590" y="640" as="sourcePoint" />
            <mxPoint x="840" y="640" as="targetPoint" />
          </mxGeometry>
        </mxCell>
        <mxCell id="_Zu6XicUp9Q5LT68E479-9" value="" style="endArrow=none;startArrow=none;endFill=0;startFill=0;endSize=8;html=1;verticalAlign=bottom;labelBackgroundColor=none;strokeWidth=3;rounded=0;" parent="WIyWlLk6GJQsqaUBKTNV-1" edge="1">
          <mxGeometry width="160" relative="1" as="geometry">
            <mxPoint x="34" y="750" as="sourcePoint" />
            <mxPoint x="960" y="740" as="targetPoint" />
            <Array as="points">
              <mxPoint x="34" y="850" />
              <mxPoint x="960" y="850" />
            </Array>
          </mxGeometry>
        </mxCell>
        <mxCell id="_Zu6XicUp9Q5LT68E479-11" value="" style="endArrow=none;startArrow=none;endFill=0;startFill=0;endSize=8;html=1;verticalAlign=bottom;labelBackgroundColor=none;strokeWidth=3;rounded=0;exitX=0.957;exitY=0.009;exitDx=0;exitDy=0;exitPerimeter=0;entryX=-0.004;entryY=0.277;entryDx=0;entryDy=0;entryPerimeter=0;" parent="WIyWlLk6GJQsqaUBKTNV-1" target="zS47Xuw-DA11DCwyIxi2-5" edge="1">
          <mxGeometry width="160" relative="1" as="geometry">
            <mxPoint x="80.9699999999998" y="600.0000000000001" as="sourcePoint" />
            <mxPoint x="260" y="478.65" as="targetPoint" />
            <Array as="points">
              <mxPoint x="80" y="478.65" />
            </Array>
          </mxGeometry>
        </mxCell>
        <mxCell id="_Zu6XicUp9Q5LT68E479-12" value="&lt;u&gt;user2:User&lt;/u&gt;" style="swimlane;fontStyle=1;align=center;verticalAlign=top;childLayout=stackLayout;horizontal=1;startSize=26;horizontalStack=0;resizeParent=1;resizeParentMax=0;resizeLast=0;collapsible=1;marginBottom=0;whiteSpace=wrap;html=1;" parent="WIyWlLk6GJQsqaUBKTNV-1" vertex="1">
          <mxGeometry x="-60" y="130" width="180" height="140" as="geometry" />
        </mxCell>
        <mxCell id="_Zu6XicUp9Q5LT68E479-13" value="&lt;div&gt;&lt;span style=&quot;background-color: initial;&quot;&gt;userID = 20340&lt;/span&gt;&lt;/div&gt;&lt;div&gt;&lt;div&gt;username = &quot;Peter&quot;&lt;/div&gt;&lt;div&gt;password = &quot;Smith&quot;&lt;/div&gt;&lt;div&gt;role = &quot;Professor&quot;&lt;/div&gt;&lt;/div&gt;" style="text;strokeColor=none;fillColor=none;align=left;verticalAlign=top;spacingLeft=4;spacingRight=4;overflow=hidden;rotatable=0;points=[[0,0.5],[1,0.5]];portConstraint=eastwest;whiteSpace=wrap;html=1;" parent="_Zu6XicUp9Q5LT68E479-12" vertex="1">
          <mxGeometry y="26" width="180" height="94" as="geometry" />
        </mxCell>
        <mxCell id="_Zu6XicUp9Q5LT68E479-14" value="" style="line;strokeWidth=1;fillColor=none;align=left;verticalAlign=middle;spacingTop=-1;spacingLeft=3;spacingRight=3;rotatable=0;labelPosition=right;points=[];portConstraint=eastwest;strokeColor=inherit;" parent="_Zu6XicUp9Q5LT68E479-12" vertex="1">
          <mxGeometry y="120" width="180" height="2" as="geometry" />
        </mxCell>
        <mxCell id="_Zu6XicUp9Q5LT68E479-15" value="&lt;div&gt;&lt;br&gt;&lt;/div&gt;" style="text;strokeColor=none;fillColor=none;align=left;verticalAlign=top;spacingLeft=4;spacingRight=4;overflow=hidden;rotatable=0;points=[[0,0.5],[1,0.5]];portConstraint=eastwest;whiteSpace=wrap;html=1;" parent="_Zu6XicUp9Q5LT68E479-12" vertex="1">
          <mxGeometry y="122" width="180" height="18" as="geometry" />
        </mxCell>
        <mxCell id="_Zu6XicUp9Q5LT68E479-16" value="&lt;u&gt;course2:Course&lt;/u&gt;" style="swimlane;fontStyle=1;align=center;verticalAlign=top;childLayout=stackLayout;horizontal=1;startSize=26;horizontalStack=0;resizeParent=1;resizeParentMax=0;resizeLast=0;collapsible=1;marginBottom=0;whiteSpace=wrap;html=1;" parent="WIyWlLk6GJQsqaUBKTNV-1" vertex="1">
          <mxGeometry x="1090" y="430" width="230" height="180" as="geometry" />
        </mxCell>
        <mxCell id="_Zu6XicUp9Q5LT68E479-17" value="courseID = 504&lt;div&gt;&lt;br&gt;&lt;div&gt;courseName = &quot;Object Oriented Software Engineering&quot;&lt;/div&gt;&lt;div&gt;&lt;br&gt;&lt;/div&gt;&lt;div&gt;creditHours = 4&lt;/div&gt;&lt;div&gt;&lt;br&gt;&lt;/div&gt;&lt;div&gt;professor = &quot;Peter&quot;&lt;/div&gt;&lt;/div&gt;" style="text;strokeColor=none;fillColor=none;align=left;verticalAlign=top;spacingLeft=4;spacingRight=4;overflow=hidden;rotatable=0;points=[[0,0.5],[1,0.5]];portConstraint=eastwest;whiteSpace=wrap;html=1;" parent="_Zu6XicUp9Q5LT68E479-16" vertex="1">
          <mxGeometry y="26" width="230" height="134" as="geometry" />
        </mxCell>
        <mxCell id="_Zu6XicUp9Q5LT68E479-18" value="" style="line;strokeWidth=1;fillColor=none;align=left;verticalAlign=middle;spacingTop=-1;spacingLeft=3;spacingRight=3;rotatable=0;labelPosition=right;points=[];portConstraint=eastwest;strokeColor=inherit;" parent="_Zu6XicUp9Q5LT68E479-16" vertex="1">
          <mxGeometry y="160" width="230" height="8" as="geometry" />
        </mxCell>
        <mxCell id="_Zu6XicUp9Q5LT68E479-19" value="&lt;div&gt;&lt;br&gt;&lt;div&gt;&lt;br&gt;&lt;/div&gt;&lt;div&gt;&lt;br&gt;&lt;/div&gt;&lt;/div&gt;&lt;div&gt;&lt;br&gt;&lt;/div&gt;" style="text;strokeColor=none;fillColor=none;align=left;verticalAlign=top;spacingLeft=4;spacingRight=4;overflow=hidden;rotatable=0;points=[[0,0.5],[1,0.5]];portConstraint=eastwest;whiteSpace=wrap;html=1;" parent="_Zu6XicUp9Q5LT68E479-16" vertex="1">
          <mxGeometry y="168" width="230" height="12" as="geometry" />
        </mxCell>
        <mxCell id="a-DCfj3_ngTF6_xHSzIw-0" value="&lt;u&gt;user1:User&lt;/u&gt;" style="swimlane;fontStyle=1;align=center;verticalAlign=top;childLayout=stackLayout;horizontal=1;startSize=26;horizontalStack=0;resizeParent=1;resizeParentMax=0;resizeLast=0;collapsible=1;marginBottom=0;whiteSpace=wrap;html=1;" vertex="1" parent="WIyWlLk6GJQsqaUBKTNV-1">
          <mxGeometry x="150" y="40" width="180" height="140" as="geometry" />
        </mxCell>
        <mxCell id="a-DCfj3_ngTF6_xHSzIw-1" value="&lt;div&gt;&lt;span style=&quot;background-color: initial;&quot;&gt;userID = 20335&lt;/span&gt;&lt;/div&gt;&lt;div&gt;&lt;div&gt;username = &quot;Hacker&quot;&lt;/div&gt;&lt;div&gt;password = &quot;Harry&quot;&lt;/div&gt;&lt;div&gt;role = &quot;Admin&quot;&lt;/div&gt;&lt;/div&gt;" style="text;strokeColor=none;fillColor=none;align=left;verticalAlign=top;spacingLeft=4;spacingRight=4;overflow=hidden;rotatable=0;points=[[0,0.5],[1,0.5]];portConstraint=eastwest;whiteSpace=wrap;html=1;" vertex="1" parent="a-DCfj3_ngTF6_xHSzIw-0">
          <mxGeometry y="26" width="180" height="94" as="geometry" />
        </mxCell>
        <mxCell id="a-DCfj3_ngTF6_xHSzIw-2" value="" style="line;strokeWidth=1;fillColor=none;align=left;verticalAlign=middle;spacingTop=-1;spacingLeft=3;spacingRight=3;rotatable=0;labelPosition=right;points=[];portConstraint=eastwest;strokeColor=inherit;" vertex="1" parent="a-DCfj3_ngTF6_xHSzIw-0">
          <mxGeometry y="120" width="180" height="2" as="geometry" />
        </mxCell>
        <mxCell id="a-DCfj3_ngTF6_xHSzIw-3" value="&lt;div&gt;&lt;br&gt;&lt;/div&gt;" style="text;strokeColor=none;fillColor=none;align=left;verticalAlign=top;spacingLeft=4;spacingRight=4;overflow=hidden;rotatable=0;points=[[0,0.5],[1,0.5]];portConstraint=eastwest;whiteSpace=wrap;html=1;" vertex="1" parent="a-DCfj3_ngTF6_xHSzIw-0">
          <mxGeometry y="122" width="180" height="18" as="geometry" />
        </mxCell>
      </root>
    </mxGraphModel>
  </diagram>
</mxfile>
